<svg xmlns="http://www.w3.org/2000/svg" width="12" height="12"><path data-name="Caminho 3" d="M6 0a6 6 0 1 0 6 6 6 6 0 0 0-6-6ZM4.26 8.7a.294.294 0 0 1-.3.283h-.8a.294.294 0 0 1-.3-.283V6.27a.294.294 0 0 1 .3-.283h.8a.294.294 0 0 1 .3.283Zm4.684-1.563a.441.441 0 0 0-.119.368.576.576 0 0 1-.183.534.454.454 0 0 0-.138.417c.049.292-.1.706-1.4.645l-1.686-.04a.375.375 0 0 1-.044 0c-.139-.017-.865-.122-.81-.444V6.359a.45.45 0 0 1 .035-.173l.952-1.865a.2.2 0 0 0 .019-.096v-.874a.443.443 0 0 1 .219-.386.476.476 0 0 1 .553.038c.427.316.437.487.437.487a2.648 2.648 0 0 1 .112 1.087.449.449 0 0 0 .444.519h1.017a.631.631 0 0 1 .585.888.432.432 0 0 0 .073.4.519.519 0 0 1-.066.752Z" fill="#b0b3b8"/></svg>