<svg xmlns="http://www.w3.org/2000/svg" width="21.217" height="20.031"><path data-name="search (1)" d="M15.849 15.093a1.21 1.21 0 0 1 1.652-.058l3.112 2.23.053-.002a1.48 1.48 0 0 1 .075 2.143 1.611 1.611 0 0 1-2.22.078L15.91 16.82l-.104-.096a1.189 1.189 0 0 1 .043-1.631Z" fill="#007dc1"/><path data-name="Caminho 60" d="M16.571 8.285a8.285 8.285 0 0 1-8.285 8.285A8.285 8.285 0 0 1 0 8.285 8.285 8.285 0 0 1 8.285 0a8.285 8.285 0 0 1 8.286 8.285" fill="#3e94d1"/><path data-name="Caminho 58" d="M14.203 8.285a5.918 5.918 0 0 1-5.918 5.918 5.918 5.918 0 0 1-5.918-5.918 5.918 5.918 0 0 1 5.918-5.918 5.918 5.918 0 0 1 5.918 5.918" fill="#e4e6eb"/></svg>