<svg xmlns="http://www.w3.org/2000/svg" width="18.947" height="13.158"><g data-name="Grupo 1"><path data-name="Caminho 94" d="M7.369 12.105A2.105 2.105 0 0 1 5.261 10a2.105 2.105 0 0 1 2.105-2.105A2.105 2.105 0 0 1 9.471 10a2.105 2.105 0 0 1-2.105 2.105m0-5.263A3.158 3.158 0 0 0 4.208 10a3.158 3.158 0 0 0 3.158 3.158A3.158 3.158 0 0 0 10.524 10a3.158 3.158 0 0 0-3.155-3.158" fill="#3e94d1"/><path data-name="Caminho 95" d="M.938 4.223v.011C.411 4.349 0 5.234 0 6.316s.412 1.967.938 2.082v.011l15.106 4.2V.034Z" fill="#3e94d1"/><path data-name="Caminho 96" d="M18.948 6.316c0 3.488-1.178 6.316-2.632 6.316s-2.632-2.828-2.632-6.316S14.862 0 16.316 0s2.632 2.828 2.632 6.316" fill="#007dc1"/></g></svg>