<svg xmlns="http://www.w3.org/2000/svg" width="19.151" height="20">
    <path data-name="Caminho 78"
        d="M16.667 17.778A2.222 2.222 0 0 1 14.445 20H2.222A2.222 2.222 0 0 1 0 17.778V2.222A2.222 2.222 0 0 1 2.222 0h12.222a2.222 2.222 0 0 1 2.222 2.222Z"
        fill="#ccd6dd" />
    <path data-name="Caminho 79"
        d="M14.444 13.333a.556.556 0 0 1-.556.556H2.778a.556.556 0 0 1-.556-.556.556.556 0 0 1 .556-.556h11.111a.556.556 0 0 1 .556.556m-8.889 2.222a.556.556 0 0 1-.556.556H2.778a.556.556 0 0 1-.556-.556.556.556 0 0 1 .556-.556H5a.556.556 0 0 1 .556.556m8.889-11.111a.556.556 0 0 1-.556.556H2.778a.556.556 0 0 1-.556-.556.556.556 0 0 1 .556-.556h11.111a.556.556 0 0 1 .556.556m0 2.222a.556.556 0 0 1-.556.556H2.778a.556.556 0 0 1-.556-.556.556.556 0 0 1 .556-.556h11.111a.556.556 0 0 1 .556.556m0 2.222a.556.556 0 0 1-.556.556H2.778a.556.556 0 0 1-.556-.555.556.556 0 0 1 .556-.556h11.111a.556.556 0 0 1 .556.556m0 2.222a.556.556 0 0 1-.556.556H2.778a.556.556 0 0 1-.556-.556.556.556 0 0 1 .556-.556h11.111a.556.556 0 0 1 .556.556"
        fill="#99aab5" />
    <path data-name="Caminho 80"
        d="M16.667 3.487a1.191 1.191 0 0 0-1.4-.012l-.44.358-.824.673-.055.044-1.32 1.077-6.6 5.381a3.534 3.534 0 0 0-.652 1.152c-.211.472-.538 1.584-.8 2.439-.083.139-.592 1.026-.306 1.363s1.292.005 1.427-.043c.9-.1 2.073-.207 2.582-.322a3.658 3.658 0 0 0 1.273-.418s.006-.009.01-.013l6.587-5.37.44-.359.08-.065Z"
        fill="#66757f" />
    <path data-name="Caminho 81"
        d="M9.525 12.515a8.758 8.758 0 0 0-1.176-1.42 8.756 8.756 0 0 0-1.417-1.176.648.648 0 0 0-.9-.024 4.478 4.478 0 0 0-.652 1.273c-.262.637-.709 2.308-.982 3.2-.046.152.287-.25.28-.117a1.129 1.129 0 0 0 .041.323l-.081.088.116.038.038.117.088-.081a1.129 1.129 0 0 0 .323.041c.133-.007-.268.326-.117.279.888-.274 2.56-.72 3.2-.982a4.478 4.478 0 0 0 1.273-.652.647.647 0 0 0-.025-.9"
        fill="#d99e82" />
    <path data-name="Caminho 82"
        d="M13.507 2.417a1.243 1.243 0 0 0-.365.88 1.243 1.243 0 0 0 .365.88l1.759 1.76a1.246 1.246 0 0 0 1.76 0l1.761-1.76a1.246 1.246 0 0 0 0-1.76L17.026.658a1.244 1.244 0 0 0-1.76 0Z"
        fill="#ea596e" />
    <path data-name="Caminho 83" d="m6.028 9.896 1.761 1.761 1.758 1.759 6.6-6.6-3.521-3.52Z" fill="#ffcc4d" />
    <path data-name="Caminho 84" d="M5.721 14.856s-1.144.629-1.453.32.323-1.451.323-1.451a1.148 1.148 0 0 1 1.131 1.131"
        fill="#292f33" />
    <path data-name="Caminho 85" d="m14.827 1.097 3.52 3.52-2.2 2.2-3.521-3.52Z" fill="#ccd6dd" />
    <path data-name="Caminho 86"
        d="m13.947 1.978 3.52 3.519.441-.439-3.52-3.52-.441.44Zm-.88.879 3.52 3.52.439-.44-3.519-3.52-.44.44Z"
        fill="#99aab5" />
</svg>