<svg xmlns="http://www.w3.org/2000/svg" width="20" height="16.371">
    <g fill="#8f939d">
        <path data-name="Caminho 54"
            d="M18.099 16.371H1.901a1.9 1.9 0 0 1-1.9-1.9V1.901a1.9 1.9 0 0 1 1.9-1.9h16.2a1.9 1.9 0 0 1 1.9 1.9v12.568a1.9 1.9 0 0 1-1.902 1.902ZM1.901 1.037a.864.864 0 0 0-.864.864v12.568a.864.864 0 0 0 .864.864h16.2a.864.864 0 0 0 .864-.864V1.901a.864.864 0 0 0-.864-.864Z" />
        <path data-name="Caminho 55"
            d="M10 6.529a.691.691 0 0 1-.145-.017L3.892 4.784a.52.52 0 1 1 .29-1l5.817 1.687 5.817-1.687a.52.52 0 0 1 .29 1l-5.963 1.728a.691.691 0 0 1-.145.017Zm6.851 6.415h-5.469a.518.518 0 1 1 0-1.037h4.217l-.211-.211a.515.515 0 0 1 0-.733.522.522 0 0 1 .733 0l1.1 1.1a.517.517 0 0 1-.366.885Z" />
        <path data-name="Caminho 56"
            d="M15.756 14.062a.522.522 0 0 1-.366-.152.515.515 0 0 1 0-.733l1.1-1.1a.52.52 0 0 1 .733.736l-1.1 1.1a.522.522 0 0 1-.367.149Z" />
    </g>
</svg>