<svg xmlns="http://www.w3.org/2000/svg" width="23.841" height="20"><g fill="#8f939d"><path data-name="Caminho 31" d="M13.682 16.288H2.198a2.2 2.2 0 0 1-2.2-2.2V2.178A2.2 2.2 0 0 1 2.198 0H17.69a2.2 2.2 0 0 1 2.2 2.2v7.59a.6.6 0 0 1-.715.591 4.072 4.072 0 0 0-.771-.076 4.26 4.26 0 0 0-4.136 5.247.6.6 0 0 1-.112.507.6.6 0 0 1-.472.228ZM2.198 1.2a1 1 0 0 0-1 1v11.89a1 1 0 0 0 1 1h10.789a4.878 4.878 0 0 1-.028-.539 5.463 5.463 0 0 1 5.443-5.459h.288V2.178a1 1 0 0 0-1-1Z"/><path data-name="Caminho 32" d="M9.93 6.593a.607.607 0 0 1-.168-.024L3.9 4.863a.6.6 0 0 1 .336-1.151L9.93 5.369l5.709-1.657a.6.6 0 1 1 .332 1.151l-5.873 1.706a.607.607 0 0 1-.168.024ZM18.402 20a5.431 5.431 0 0 1-5.3-4.168 5.622 5.622 0 0 1-.152-1.283 5.463 5.463 0 0 1 5.455-5.459 5.235 5.235 0 0 1 1 .1 5.455 5.455 0 0 1-1 10.813Zm0-9.71a4.28 4.28 0 1 0 .779.076 4.28 4.28 0 0 0-.779-.076Z"/><path data-name="Caminho 33" d="M19.329 16.083a.6.6 0 0 1-.424-.176l-.9-.9a.6.6 0 0 1-.176-.424v-2.504a.6.6 0 0 1 1.2 0v2.258l.723.723a.6.6 0 0 1-.424 1.023Z"/></g></svg>