<svg xmlns="http://www.w3.org/2000/svg" width="23.841" height="20"><g transform="translate(-2.15 -7)"><circle data-name="Elipse 10" cx="4.623" cy="4.623" r="4.623" transform="translate(16.032 16.998)" fill="#3e94d1"/><path data-name="Caminho 50" d="M15.832 23.288H4.348a2.2 2.2 0 0 1-2.2-2.2V9.178A2.2 2.2 0 0 1 4.348 7H19.84a2.2 2.2 0 0 1 2.2 2.2v7.59a.6.6 0 0 1-.715.591 4.072 4.072 0 0 0-.771-.076 4.26 4.26 0 0 0-4.136 5.247.6.6 0 0 1-.112.507.6.6 0 0 1-.472.228ZM4.348 8.2a1 1 0 0 0-1 1v11.89a1 1 0 0 0 1 1h10.789a4.878 4.878 0 0 1-.028-.539 5.463 5.463 0 0 1 5.443-5.459h.288V9.178a1 1 0 0 0-1-1Z" fill="#2586c8"/><path data-name="Caminho 51" d="M12.08 13.593a.607.607 0 0 1-.168-.024L6.05 11.863a.6.6 0 0 1 .336-1.151l5.694 1.657 5.709-1.657a.6.6 0 1 1 .332 1.151l-5.873 1.706a.607.607 0 0 1-.168.024ZM20.552 27a5.431 5.431 0 0 1-5.3-4.168 5.622 5.622 0 0 1-.152-1.283 5.463 5.463 0 0 1 5.455-5.459 5.235 5.235 0 0 1 1 .1 5.455 5.455 0 0 1-1 10.813Zm0-9.71a4.28 4.28 0 1 0 .779.076 4.28 4.28 0 0 0-.779-.076Z" fill="#2586c8"/><path data-name="Caminho 52" d="M21.479 23.083a.6.6 0 0 1-.424-.176l-.9-.9a.6.6 0 0 1-.176-.424v-2.504a.6.6 0 0 1 1.2 0v2.258l.723.723a.6.6 0 0 1-.424 1.023Z" fill="#fff"/></g></svg>