<svg xmlns="http://www.w3.org/2000/svg" width="468.905" height="224.295"><path data-name="Caminho 4" d="M94.991 32.029 93.325 69.21l-48.143 3.946-.877 25.167 42-.7-1.749 25.342-40.952.7-.7 30.692 46.477.7-1.58 26.223-65.594 2.367q-2.718-34.55-2.718-58.4 0-4.56.614-13.241 1.4-23.151 1.4-79.01Zm45.951 159.335q-11.049.965-29.64 2.894-3.245-39.637-3.245-61.647 0-23.5-2.368-85.85l31.832-.877Zm109.877-90.848q-1.14 53.58-37.532 69.8-10.873 4.913-19.555 4.913-22.712 0-34.463-16.4-10.26-14.381-10.26-37.883a117.859 117.859 0 0 1 4.823-32.1q6.138-21.572 18.24-37.094 15.346-19.731 34.2-19.731 13.943 0 24.729 11.4 8.857 9.208 14.031 24.2l-20.607 10.961q-4.385-21.572-17.1-21.572-10.523 0-19.2 15.96a91.661 91.661 0 0 0-9.3 25.167 90.708 90.708 0 0 0-2.368 19.2q0 28.237 17.977 28.237 17.538 0 26.044-21.221l-25.167-.514.7-25.343Zm100.583 94.093q-14.294 1.754-23.5 3.245-2.718-46.389-2.718-73.836v-1.4l-34.463 5 1.228 48.318q-9.3.789-27.8 2.543-2.894-35.252-2.894-57.7 0-18.152-2.368-80.413l29.64-.965 1.491 64.538 35.164-1.315q-.175-17.8-1.754-81.729l25.08-.877Zm92.514-161.27-2.1 33.06-22.984 1.232-5.432 116.016-26.4-2.017 1.232-112.245-29.815 1.666-.7-35.778Z" stroke="#373535" stroke-width="30"/><path data-name="Caminho 3" d="m103.971 41.008-1.666 37.181-48.143 3.946-.877 25.167 42-.7-1.749 25.342-40.952.7-.7 30.692 46.477.7-1.58 26.223-65.594 2.367q-2.718-34.55-2.718-58.4 0-4.56.614-13.241 1.4-23.151 1.4-79.01Zm45.951 159.335q-11.049.965-29.64 2.894-3.245-39.637-3.245-61.647 0-23.5-2.368-85.85l31.832-.877Zm109.877-90.848q-1.14 53.58-37.532 69.8-10.873 4.913-19.555 4.913-22.712 0-34.463-16.4-10.26-14.381-10.26-37.883a117.859 117.859 0 0 1 4.823-32.1q6.138-21.572 18.24-37.094Q196.398 41 215.252 41q13.943 0 24.729 11.4 8.857 9.208 14.031 24.2l-20.607 10.961q-4.385-21.572-17.1-21.572-10.523 0-19.2 15.96a91.661 91.661 0 0 0-9.3 25.167 90.708 90.708 0 0 0-2.368 19.2q0 28.237 17.977 28.237 17.538 0 26.044-21.221l-25.167-.514.7-25.343Zm100.583 94.093q-14.294 1.754-23.5 3.245-2.718-46.389-2.718-73.836v-1.4l-34.463 5 1.228 48.318q-9.3.789-27.8 2.543-2.894-35.252-2.894-57.7 0-18.152-2.368-80.413l29.64-.965 1.491 64.538 35.164-1.315q-.175-17.8-1.754-81.729l25.08-.877Zm92.514-161.27-2.1 33.06-22.984 1.232-5.432 116.016-26.4-2.017 1.232-112.245-29.815 1.666-.7-35.778Z" stroke="#373535" stroke-width="30" opacity=".65"/><path data-name="Caminho 2" d="M90.502 27.539 88.836 64.72l-48.143 3.946-.877 25.167 42-.7-1.749 25.342-40.952.7-.7 30.692 46.477.7-1.58 26.223-65.594 2.367Q15 144.607 15 120.757q0-4.56.614-13.241 1.4-23.151 1.4-79.01Zm45.951 159.335q-11.049.965-29.64 2.894-3.245-39.637-3.245-61.647 0-23.5-2.368-85.85l31.832-.877ZM246.33 96.026q-1.14 53.58-37.532 69.8-10.873 4.913-19.555 4.913-22.712 0-34.463-16.4-10.26-14.381-10.26-37.883a117.859 117.859 0 0 1 4.823-32.1q6.138-21.572 18.24-37.094 15.346-19.731 34.2-19.731 13.943 0 24.729 11.4 8.857 9.208 14.031 24.2l-20.607 10.961q-4.385-21.572-17.1-21.572-10.523 0-19.2 15.96a91.661 91.661 0 0 0-9.3 25.167 90.708 90.708 0 0 0-2.368 19.2q0 28.237 17.977 28.237 17.538 0 26.044-21.221l-25.167-.514.7-25.343Zm100.583 94.093q-14.294 1.754-23.5 3.245-2.718-46.389-2.718-73.836v-1.4l-34.463 5 1.228 48.318q-9.3.789-27.8 2.543-2.894-35.252-2.894-57.7 0-18.152-2.368-80.413l29.64-.965 1.491 64.538 35.164-1.315q-.175-17.8-1.754-81.729l25.08-.877Zm92.514-161.27-2.1 33.06-22.984 1.232-5.432 116.016-26.4-2.017 1.232-112.245-29.815 1.666-.7-35.778Z" stroke="#000" stroke-width="30"/><path data-name="Caminho 1" d="M81.522 18.559 79.856 55.74l-48.143 3.946-.877 25.167 42-.7-1.749 25.342-40.952.7-.7 30.692 46.477.7-1.58 26.223-65.594 2.367q-2.718-34.55-2.718-58.4 0-4.56.614-13.241 1.4-23.151 1.4-79.01Zm45.951 159.335q-11.049.965-29.64 2.894-3.245-39.637-3.245-61.647 0-23.5-2.368-85.85l31.832-.877ZM237.35 87.046q-1.14 53.58-37.532 69.8-10.873 4.913-19.555 4.913-22.712 0-34.463-16.4-10.26-14.381-10.26-37.883a117.859 117.859 0 0 1 4.823-32.1q6.138-21.572 18.24-37.094 15.346-19.731 34.2-19.731 13.943 0 24.729 11.4 8.857 9.208 14.031 24.2l-20.607 10.961q-4.385-21.572-17.1-21.572-10.523 0-19.2 15.96a91.661 91.661 0 0 0-9.3 25.167 90.708 90.708 0 0 0-2.368 19.2q0 28.237 17.977 28.237 17.538 0 26.044-21.221l-25.167-.514.7-25.343Zm100.583 94.093q-14.294 1.754-23.5 3.245-2.718-46.389-2.718-73.836v-1.4l-34.463 5 1.228 48.318q-9.3.789-27.8 2.543-2.894-35.252-2.894-57.7 0-18.152-2.368-80.413l29.64-.965 1.491 64.538 35.164-1.315q-.175-17.8-1.754-81.729l25.08-.877Zm92.514-161.27-2.1 33.06-22.984 1.232-5.432 116.016-26.4-2.017 1.232-112.245-29.815 1.666-.7-35.778Z" fill="#fff"/></svg>