<svg xmlns="http://www.w3.org/2000/svg" width="24.194" height="20"><path data-name="Caminho 43" d="m10.548 1.811 1.547 1.548-7.3 7.306a2.027 2.027 0 0 1-2.707.144 8.755 8.755 0 0 1-.2-.185l-.073-.073a6.18 6.18 0 0 1 8.74-8.74Z" fill="#8f939d"/><path data-name="Caminho 44" d="m13.643 1.81-8.852 8.855a2.027 2.027 0 0 1-2.707.144 1.787 1.787 0 0 1-.161-.144l8.74 8.74a2.027 2.027 0 0 0 2.868 0l8.852-8.852a6.18 6.18 0 0 0-8.74-8.74Zm5.8 5.8a2.028 2.028 0 1 1 0-2.868 2.027 2.027 0 0 1 .004 2.872Z" fill="#e4e6eb"/></svg>