<svg xmlns="http://www.w3.org/2000/svg" width="99.21" height="82.012"><defs><linearGradient id="a" x1=".156" y1=".154" x2=".641" y2=".692" gradientUnits="objectBoundingBox"><stop offset=".12" stop-color="#2988c9"/><stop offset=".29" stop-color="#2586c8"/><stop offset=".46" stop-color="#1983c5"/><stop offset=".63" stop-color="#057ec2"/><stop offset=".67" stop-color="#007dc1"/></linearGradient></defs><path data-name="Caminho 45" d="m43.26 7.42 6.35 6.35-29.96 29.96a8.311 8.311 0 0 1-11.1.59c-.28-.25-.55-.5-.82-.76l-.3-.3A25.343 25.343 0 0 1 43.27 7.42Z" fill="url(#a)" transform="translate(-.005 .005)"/><path data-name="Caminho 46" d="m55.945 7.425-36.3 36.31a8.311 8.311 0 0 1-11.1.59 7.325 7.325 0 0 1-.66-.59l35.84 35.84a8.311 8.311 0 0 0 11.76 0l36.3-36.3a25.343 25.343 0 0 0-35.84-35.84Zm23.8 23.8a8.316 8.316 0 1 1 0-11.76 8.311 8.311 0 0 1 0 11.76Z" fill="#3e94d1"/></svg>