<svg xmlns="http://www.w3.org/2000/svg" width="160.096" height="136.456"><defs><linearGradient id="a" x1=".156" y1=".154" x2=".641" y2=".692" gradientUnits="objectBoundingBox"><stop offset=".12" stop-color="#2988c9"/><stop offset=".29" stop-color="#2586c8"/><stop offset=".46" stop-color="#1983c5"/><stop offset=".63" stop-color="#057ec2"/><stop offset=".67" stop-color="#007dc1"/></linearGradient></defs><path d="M9.135 136.264h.385a8.377 8.377 0 0 0 4.423-1.538q3.462-2.308 4.231-7.6a12.922 12.922 0 0 0 .192-2.308q0-6.058-3.654-9.135a8.213 8.213 0 0 0-5.577-2.212 16.978 16.978 0 0 0-4.038.962v-7.212a2.3 2.3 0 0 0-.77-1.821 2.368 2.368 0 0 0-1.827-.867 2.177 2.177 0 0 0-2.212 1.538A2.2 2.2 0 0 0 0 107.225v18.558q0 6.827 4.712 9.519a7.945 7.945 0 0 0 4.423.962ZM5.1 125.783v-3.173a3.482 3.482 0 0 1 1.346-3.173l.577-.288a4.383 4.383 0 0 1 2.115-.577 5.226 5.226 0 0 1 1.923.673q2.212 1.442 2.212 5.577t-2.212 5.673a4.061 4.061 0 0 1-1.923.769H8.85q-3.173 0-3.654-3.654a16.559 16.559 0 0 1-.096-1.827Zm22.688-18.365a2.416 2.416 0 0 0-1.538-2.4 2.141 2.141 0 0 0-.962-.192 2.474 2.474 0 0 0-2.308 1.442 3.105 3.105 0 0 0-.192 1.154v26.346a2.284 2.284 0 0 0 1.442 2.212 2.823 2.823 0 0 0 1.058.192 2.353 2.353 0 0 0 2.312-1.447 2.572 2.572 0 0 0 .192-.962Zm7.019 5.962a2.827 2.827 0 0 1 1.923.769 2.609 2.609 0 0 1 .77 1.922v10.962a4.521 4.521 0 0 0 .481 2.212 3.353 3.353 0 0 0 1.635 1.635 6.056 6.056 0 0 0 1.923.288q2.4 0 3.269-1.442l.288-.481a5.285 5.285 0 0 0 .481-2.212v-10.962a2.5 2.5 0 0 1 1.346-2.308 2.221 2.221 0 0 1 2.5 0 2.5 2.5 0 0 1 1.346 2.308v10.962q-.577 6.635-5.962 8.654a9.234 9.234 0 0 1-3.269.577 8.506 8.506 0 0 1-7.211-3.464 8.654 8.654 0 0 1-.865-1.25 9.666 9.666 0 0 1-1.154-4.519v-10.96a2.427 2.427 0 0 1 1.442-2.4 2.017 2.017 0 0 1 1.058-.292Zm22.885 0a2.827 2.827 0 0 1 1.923.769 2.609 2.609 0 0 1 .769 1.923v10.962a4.521 4.521 0 0 0 .481 2.212 3.353 3.353 0 0 0 1.635 1.633 6.056 6.056 0 0 0 1.923.288q2.4 0 3.269-1.442l.288-.481a5.285 5.285 0 0 0 .481-2.212v-10.961a2.5 2.5 0 0 1 1.346-2.308 2.221 2.221 0 0 1 2.5 0 2.5 2.5 0 0 1 1.346 2.308v10.962q-.577 6.635-5.962 8.654a9.234 9.234 0 0 1-3.269.577 8.506 8.506 0 0 1-7.21-3.464 8.654 8.654 0 0 1-.865-1.25 9.666 9.666 0 0 1-1.154-4.519v-10.96a2.427 2.427 0 0 1 1.442-2.4 2.017 2.017 0 0 1 1.057-.292Zm31.731-8.846 1.346.192a2.64 2.64 0 0 1 1.923 1.827 2.476 2.476 0 0 1-.769 2.6 2.274 2.274 0 0 1-2.5.577l-1.635-.192a1.656 1.656 0 0 0-1.346.577 2.784 2.784 0 0 0-.481 1.923v2.4H90.1a2.231 2.231 0 0 1 2.212 1.25 2.221 2.221 0 0 1 0 2.5 2.421 2.421 0 0 1-2.212 1.345h-4.138v14.231a2.588 2.588 0 0 1-1.154 2.308 2.548 2.548 0 0 1-2.692 0 2.533 2.533 0 0 1-1.25-2.308v-14.231h-.577a2.5 2.5 0 0 1-2.308-1.346 2.487 2.487 0 0 1 0-2.5 2.311 2.311 0 0 1 2.308-1.25h.577v-2.4a7.754 7.754 0 0 1 1.634-5.196 6.068 6.068 0 0 1 3.75-2.212 10.481 10.481 0 0 1 3.173-.096Zm17.212 26.442h-.865a4.323 4.323 0 0 1-3.846-3.75H112.4a2.243 2.243 0 0 0 2.308-1.538 2.572 2.572 0 0 0 .192-.962v-.962q0-6.731-4.615-9.615a7.98 7.98 0 0 0-3.942-.962 8.92 8.92 0 0 0-5.288 1.635q-4.231 2.788-4.519 9.327a2.927 2.927 0 0 0 0 1.058q.288 6.25 4.519 9.327a8.073 8.073 0 0 0 4.712 1.635 24.178 24.178 0 0 0 4.808-.192 7.88 7.88 0 0 0 3.365-1.635 2.108 2.108 0 0 0 .962-2.308 2.489 2.489 0 0 0-1.442-2.115 2.554 2.554 0 0 0-2.6.481q-.86.575-4.225.575Zm-.385-12.6a3.246 3.246 0 0 1 1.635.385 3.944 3.944 0 0 1 1.923 3.173v.192h-7.885a4.669 4.669 0 0 1 1.923-3.173 4.085 4.085 0 0 1 1.923-.577h.481Zm22.981 12.6h-.865a4.323 4.323 0 0 1-3.846-3.75H135a2.243 2.243 0 0 0 2.308-1.538 2.573 2.573 0 0 0 .192-.962v-.962q0-6.731-4.615-9.615a7.98 7.98 0 0 0-3.942-.962 8.92 8.92 0 0 0-5.288 1.635q-4.231 2.788-4.519 9.327a2.927 2.927 0 0 0 0 1.058q.288 6.25 4.519 9.327a8.073 8.073 0 0 0 4.712 1.635 24.178 24.178 0 0 0 4.808-.192 7.88 7.88 0 0 0 3.365-1.635 2.108 2.108 0 0 0 .96-2.309 2.489 2.489 0 0 0-1.442-2.115 2.554 2.554 0 0 0-2.6.481q-.858.576-4.227.576Zm-.385-12.6a3.246 3.246 0 0 1 1.635.385 3.944 3.944 0 0 1 1.923 3.173v.192h-7.885a4.669 4.669 0 0 1 1.923-3.173 4.085 4.085 0 0 1 1.923-.577h.481Zm31.25 7.4v-18.551a2.3 2.3 0 0 0-.769-1.827 2.191 2.191 0 0 0-1.827-.865 2.347 2.347 0 0 0-2.308 1.538 3.1 3.1 0 0 0-.192 1.154v7.308a9.951 9.951 0 0 0-4.135-.962 9.147 9.147 0 0 0-4.615 1.442q-4.519 2.981-4.519 9.9 0 6.058 3.75 9.327l.769.481a8.258 8.258 0 0 0 4.327 1.538h.288a8.591 8.591 0 0 0 4.615-.962 8.538 8.538 0 0 0 4.231-6.154 13.861 13.861 0 0 0 .389-3.36Zm-5.1-3.077v3.077q.1 4.135-1.923 5a2.725 2.725 0 0 1-1.827.481h-.385a8.606 8.606 0 0 1-1.923-.769 7.635 7.635 0 0 1-2.115-5.577q0-4.231 2.115-5.673a4.066 4.066 0 0 1 1.923-.673 8.464 8.464 0 0 1 2.212.577 3.731 3.731 0 0 1 1.731 1.731 7.607 7.607 0 0 1 .196 1.833Z" fill="#3e94d1"/><path data-name="Caminho 45" d="m42.2 7.238 6.194 6.194-29.226 29.225a8.107 8.107 0 0 1-10.828.576 29.586 29.586 0 0 1-.8-.741l-.292-.292a24.721 24.721 0 0 1 34.96-34.962Z" transform="translate(31.656 .005)" fill="url(#a)"/><path data-name="Caminho 46" d="m86.233 7.243-35.41 35.419a8.107 8.107 0 0 1-10.828.576 7.146 7.146 0 0 1-.644-.576l34.962 34.961a8.107 8.107 0 0 0 11.471 0l35.409-35.41a24.721 24.721 0 0 0-34.96-34.96Zm23.216 23.216a8.112 8.112 0 1 1 0-11.471 8.107 8.107 0 0 1 0 11.471Z" fill="#3e94d1"/></svg>