<svg xmlns="http://www.w3.org/2000/svg" width="96.775" height="80"><defs><linearGradient id="a" x1=".156" y1=".154" x2=".641" y2=".692" gradientUnits="objectBoundingBox"><stop offset=".12" stop-color="#2988c9"/><stop offset=".29" stop-color="#2586c8"/><stop offset=".46" stop-color="#1983c5"/><stop offset=".63" stop-color="#057ec2"/><stop offset=".67" stop-color="#007dc1"/></linearGradient></defs><path data-name="Caminho 45" d="m42.2 7.238 6.194 6.194-29.226 29.225a8.107 8.107 0 0 1-10.828.576 29.586 29.586 0 0 1-.8-.741l-.292-.292a24.721 24.721 0 0 1 34.96-34.962Z" transform="translate(-.005 .005)" fill="url(#a)"/><path data-name="Caminho 46" d="m54.572 7.243-35.41 35.419a8.107 8.107 0 0 1-10.828.576 7.146 7.146 0 0 1-.644-.576l34.962 34.961a8.107 8.107 0 0 0 11.471 0l35.409-35.41a24.721 24.721 0 0 0-34.96-34.96Zm23.216 23.216a8.112 8.112 0 1 1 0-11.471 8.107 8.107 0 0 1 0 11.471Z" fill="#3e94d1"/></svg>