<svg xmlns="http://www.w3.org/2000/svg" width="17.495" height="20"><path data-name="Caminho 87" d="M17.495 8.732v8.883a2.386 2.386 0 0 1-2.386 2.386H2.386A2.386 2.386 0 0 1 0 17.615V8.732a2.386 2.386 0 0 1 .7-1.683L7.062.687a2.433 2.433 0 0 1 3.372 0L16.8 7.049a2.386 2.386 0 0 1 .7 1.686Z" fill="#8f939d"/><path data-name="Caminho 88" d="M16.795 7.05 10.433.684A2.386 2.386 0 0 0 8.747 0v20h6.362a2.386 2.386 0 0 0 2.386-2.386V8.732a2.386 2.386 0 0 0-.7-1.682Z" fill="#8f939d"/><path data-name="Caminho 89" d="M11.929 13.638V20H5.567v-6.362a2.386 2.386 0 0 1 2.386-2.386h1.59a2.386 2.386 0 0 1 2.386 2.386Z" fill="#e4e6eb"/><path data-name="Caminho 90" d="M11.928 13.638a2.386 2.386 0 0 0-2.381-2.386h-.8v8.747h3.181Z" fill="#e4e6eb"/></svg>