<svg xmlns="http://www.w3.org/2000/svg" width="19.87" height="20">
    <g transform="translate(-3.5 -3.5)">
        <g data-name="Caminho 34" fill="none" fill-rule="evenodd">
            <path
                d="m9.448 23.39 6.607-4.955h5.66a1.656 1.656 0 0 0 1.656-1.656V5.156A1.656 1.656 0 0 0 21.714 3.5H5.156A1.656 1.656 0 0 0 3.5 5.156V16.78a1.656 1.656 0 0 0 1.656 1.656h3.409v4.513a.552.552 0 0 0 .883.442Z" />
            <path
                d="m9.665 21.852 6.023-4.518h6.026c.306 0 .556-.249.556-.555V5.156a.556.556 0 0 0-.556-.556H5.156a.556.556 0 0 0-.556.556V16.78c0 .306.25.555.556.555h4.509v4.517M9.116 23.5a.551.551 0 0 1-.551-.552v-4.513h-3.41A1.656 1.656 0 0 1 3.5 16.78V5.156c0-.915.741-1.656 1.656-1.656h16.558c.914 0 1.656.741 1.656 1.656v11.623c0 .914-.742 1.655-1.656 1.655h-5.66L9.448 23.39a.552.552 0 0 1-.332.11Z"
                fill="#8f939d" />
        </g>
        <circle data-name="Elipse 7" cx=".997" cy=".997" r=".997" transform="translate(11.995 10.551)" fill="#8f939d" />
        <circle data-name="Elipse 8" cx=".997" cy=".997" r=".997" transform="translate(15.981 10.551)" fill="#8f939d" />
        <circle data-name="Elipse 9" cx=".997" cy=".997" r=".997" transform="translate(8.008 10.551)" fill="#8f939d" />
    </g>
</svg>