<svg xmlns="http://www.w3.org/2000/svg" width="20.93" height="20"><path data-name="Caminho 92" d="M20.931 14.884a1.86 1.86 0 0 1-1.86 1.86H8.837a1.86 1.86 0 0 1-1.86-1.86V1.86A1.86 1.86 0 0 1 8.837 0H19.07a1.86 1.86 0 0 1 1.86 1.86Z" fill="#ccd6dd"/><path data-name="Caminho 93" d="M19.07 11.163a.465.465 0 0 1-.465.465h-9.3a.465.465 0 0 1-.465-.465.465.465 0 0 1 .465-.465h9.3a.465.465 0 0 1 .465.465m-7.442 1.86a.465.465 0 0 1-.465.465H9.302a.465.465 0 0 1-.465-.465.465.465 0 0 1 .465-.465h1.86a.465.465 0 0 1 .465.465m7.442-9.3a.465.465 0 0 1-.465.465h-9.3a.465.465 0 0 1-.465-.465.465.465 0 0 1 .465-.465h9.3a.465.465 0 0 1 .465.465m0 1.86a.465.465 0 0 1-.465.465h-9.3a.465.465 0 0 1-.465-.465.465.465 0 0 1 .465-.465h9.3a.465.465 0 0 1 .465.465m0 1.86a.465.465 0 0 1-.465.465h-9.3a.465.465 0 0 1-.465-.465.465.465 0 0 1 .465-.465h9.3a.465.465 0 0 1 .465.465m0 1.86a.465.465 0 0 1-.465.465h-9.3a.465.465 0 0 1-.465-.465.465.465 0 0 1 .465-.465h9.3a.465.465 0 0 1 .465.465" fill="#99aab5"/><path data-name="Caminho 78" d="M13.954 18.14a1.86 1.86 0 0 1-1.86 1.86H1.86A1.86 1.86 0 0 1 0 18.14V5.116a1.86 1.86 0 0 1 1.86-1.86h10.233a1.86 1.86 0 0 1 1.86 1.86Z" fill="#ccd6dd"/><path data-name="Caminho 79" d="M12.093 14.419a.465.465 0 0 1-.465.465h-9.3a.465.465 0 0 1-.465-.465.465.465 0 0 1 .465-.465h9.3a.465.465 0 0 1 .465.465m-7.442 1.86a.465.465 0 0 1-.465.465H2.325a.465.465 0 0 1-.465-.465.465.465 0 0 1 .465-.465h1.86a.465.465 0 0 1 .465.465m7.442-9.3a.465.465 0 0 1-.465.465h-9.3a.465.465 0 0 1-.465-.465.465.465 0 0 1 .465-.465h9.3a.465.465 0 0 1 .465.465m0 1.86a.465.465 0 0 1-.465.465h-9.3a.465.465 0 0 1-.465-.465.465.465 0 0 1 .465-.465h9.3a.465.465 0 0 1 .465.465m0 1.86a.465.465 0 0 1-.465.465h-9.3a.465.465 0 0 1-.465-.465.465.465 0 0 1 .465-.465h9.3a.465.465 0 0 1 .465.465m0 1.86a.465.465 0 0 1-.465.465h-9.3a.465.465 0 0 1-.465-.465.465.465 0 0 1 .465-.465h9.3a.465.465 0 0 1 .465.465" fill="#99aab5"/></svg>