<svg xmlns="http://www.w3.org/2000/svg" width="19.931" height="20">
    <path data-name="Caminho 75"
        d="M12.18 0 9.965 4.445 7.2 1.666v3.89L1.664 4.445 6.093 8.89l-6.09 3.333h6.644L3.325 18.89l6.644-4.445L16.055 20l-1.661-7.778h5.536L15.5 8.889l4.429-5-6.644 1.667Z"
        fill="#bb1a34" />
    <path data-name="Caminho 76"
        d="m12.683 7.155 1.03-.259 2.893-.726-1.869 2.113-.73.825.88.662 1.619 1.219H13.23l.262 1.229.859 4.019-3.236-2.952-.585-.534-.657.44-2.9 1.941 1.331-2.673.732-1.47H5.295l2.082-1.14 1.186-.644-.956-.961-1.685-1.69 1.783.358 1.21.243v-2.35l.8.806.993 1 .627-1.261.7-1.415"
        fill="#fcab40" />
    <path data-name="Caminho 77"
        d="m11.91 7.918.425-.106 1.194-.3-.773.872-.3.34.364.273.669.5h-1.355l.109.507.354 1.659-1.336-1.215-.241-.22-.272.182-1.2.8.55-1.1.3-.607h-1.54l.86-.47.49-.269-.395-.4-.7-.7.735.148.5.1v-.963l.332.332.41.411.259-.52.299-.583"
        fill="#f5f8fa" />
</svg>