<svg xmlns="http://www.w3.org/2000/svg" width="20.588" height="20"><path data-name="Caminho 63" d="M8.238 17.646c0 1.3-.465 2.353-1.765 2.353H2.355c-2.353 0-2.353-8.235 0-8.235h4.118c1.3 0 1.765 1.054 1.765 2.353Z" fill="#1b84c6"/><path data-name="Caminho 64" d="M19.411 18.823h-.588v-5.882h.588a.588.588 0 0 0 .588-.588.588.588 0 0 0-.588-.589H5.294c-2.353 0-2.353 8.235 0 8.235h14.118a.588.588 0 0 0 .588-.588.588.588 0 0 0-.588-.588" fill="#3e94d1"/><path data-name="Caminho 65" d="M19.513 18.823H5.882c-1.176 0-1.176-5.882 0-5.882h13.631c.649 0 .649 5.882 0 5.882" fill="#ccd6dd"/><path data-name="Caminho 66" d="M6.176 14.117h13.735c-.079-.691-.212-1.176-.4-1.176H5.882c-.971 0-1.14 4-.508 5.4-.231-1.74.036-4.228.8-4.228" fill="#99aab5"/><path data-name="Caminho 67" d="M6.471 4.118a2.353 2.353 0 0 1-2.353 2.353H1.765C-.588 6.471-.588 0 1.765 0h2.353a2.353 2.353 0 0 1 2.353 2.35Z" fill="#269"/><path data-name="Caminho 68" d="M17.646 5.294h-.588V1.176h.588a.588.588 0 0 0 .588-.588.588.588 0 0 0-.588-.588H3.529c-2.353 0-2.353 6.471 0 6.471h14.118a.588.588 0 0 0 .588-.588.588.588 0 0 0-.588-.588" fill="#55acee"/><path data-name="Caminho 69" d="M17.748 5.294H4.117c-1.176 0-1.176-4.118 0-4.118h13.631c.649 0 .649 4.118 0 4.118" fill="#ccd6dd"/><path data-name="Caminho 70" d="M4.117 2.352H18.19c-.067-.662-.214-1.176-.443-1.176H4.117c-.7 0-.982 1.464-.846 2.647.092-.8.371-1.471.846-1.471" fill="#99aab5"/><path data-name="Caminho 71" d="M11.176 9.411a2.353 2.353 0 0 1-2.35 2.353H2.944c-2.353 0-2.353-5.294 0-5.294h5.882a2.353 2.353 0 0 1 2.35 2.35Z" fill="#1b84c6"/><path data-name="Caminho 72" d="M19.999 10.588h-.588V7.646h.588a.588.588 0 0 0 .588-.588.588.588 0 0 0-.588-.588H8.235c-2.353 0-2.353 5.294 0 5.294H20a.588.588 0 0 0 .588-.588.588.588 0 0 0-.588-.588" fill="#3e94d1"/><path data-name="Caminho 73" d="M20.101 10.588H8.823c-1.176 0-1.176-2.941 0-2.941h11.278c.649 0 .649 2.941 0 2.941" fill="#ccd6dd"/><path data-name="Caminho 74" d="M8.823 8.823h11.755c-.038-.625-.2-1.176-.478-1.176H8.823c-.75 0-1.02 1.192-.81 2.059.116-.494.386-.882.814-.882" fill="#99aab5"/></svg>