<svg xmlns="http://www.w3.org/2000/svg" width="2677.781" height="603.538"><defs><linearGradient id="a" x1=".156" y1=".154" x2=".641" y2=".692" gradientUnits="objectBoundingBox"><stop offset=".12" stop-color="#2988c9"/><stop offset=".29" stop-color="#2586c8"/><stop offset=".46" stop-color="#1983c5"/><stop offset=".63" stop-color="#057ec2"/><stop offset=".67" stop-color="#007dc1"/></linearGradient></defs><path data-name="Caminho 53" d="M945.322 485.589h5.073q30.438-1.268 58.34-20.292 45.658-30.439 55.8-100.193a170.439 170.439 0 0 0 2.537-30.439q0-79.9-48.194-120.486-32.975-29.17-73.56-29.17-30.438 3.8-53.267 12.683v-95.12q0-15.219-10.146-24.1-10.143-11.413-24.094-11.413-21.561 0-29.175 20.292a29.046 29.046 0 0 0-3.8 15.22v244.776q0 90.047 62.145 125.559 29.171 15.219 58.341 12.683Zm-53.268-138.242v-41.853q0-30.438 17.756-41.853l7.61-3.8q13.951-7.61 27.9-7.61 15.219 2.537 25.365 8.878 29.17 19.024 29.17 73.56t-29.17 74.828q-12.683 8.878-25.365 10.146h-3.8q-41.853 0-48.194-48.194a218.413 218.413 0 0 1-1.272-24.102Zm299.313-242.24q0-22.829-20.292-31.707a28.236 28.236 0 0 0-12.684-2.541q-20.292 0-30.438 19.024a40.96 40.96 0 0 0-2.536 15.219v347.512q0 20.292 19.024 29.17a37.236 37.236 0 0 0 13.951 2.537q21.561 0 30.439-19.024a33.927 33.927 0 0 0 2.537-12.683Zm92.584 78.633q13.951 0 25.365 10.146 10.146 10.146 10.146 25.365v144.584q0 17.756 6.341 29.17 8.878 16.488 21.56 21.561a79.879 79.879 0 0 0 25.366 3.8q31.706 0 43.121-19.024l3.805-6.341a69.718 69.718 0 0 0 6.341-29.17V219.252q0-20.292 17.756-30.439t32.975 0q17.756 10.146 17.756 30.439v144.583q-7.61 87.511-78.633 114.145a121.79 121.79 0 0 1-43.121 7.61q-60.877 0-95.12-45.658a114.146 114.146 0 0 1-11.414-16.488q-15.219-29.17-15.219-59.609V219.252q0-22.829 19.024-31.707a26.608 26.608 0 0 1 13.95-3.805Zm301.849 0q13.951 0 25.365 10.146 10.147 10.146 10.146 25.365v144.584q0 17.756 6.341 29.17 8.878 16.488 21.561 21.561a79.878 79.878 0 0 0 25.365 3.8q31.707 0 43.121-19.024l3.8-6.341a69.713 69.713 0 0 0 6.341-29.17V219.252q0-20.292 17.756-30.439t32.975 0q17.765 10.146 17.765 30.439v144.583q-7.61 87.511-78.633 114.145a121.791 121.791 0 0 1-43.121 7.61q-60.878 0-95.121-45.658a114.156 114.156 0 0 1-11.414-16.488q-15.22-29.17-15.219-59.609V219.252q0-22.829 19.024-31.707a26.609 26.609 0 0 1 13.947-3.805Zm495.894 263.8V318.177q-3.8-59.609-41.853-93.852a124.576 124.576 0 0 0-21.561-15.219q-24.1-12.683-48.195-12.683-57.072 0-92.583 48.194-39.317 58.342-21.566 142.042 11.415 53.267 53.267 79.9a173.793 173.793 0 0 0 21.561 11.414q46.926 15.219 86.242-5.073 7.61 20.292 30.438 21.561a29.027 29.027 0 0 0 25.365-10.146q8.884-11.409 8.884-36.774Zm-114.145-182.631q25.365 0 39.316 22.829 8.878 16.488 7.61 74.828-3.8 41.853-29.17 52-8.878 2.537-24.1 1.268-25.366-3.8-35.512-27.9a22.51 22.51 0 0 1-2.536-10.146q-10.146-39.316 0-77.365 5.073-25.365 30.438-32.975a44.441 44.441 0 0 1 13.954-2.539Zm296.775-79.9h-3.8a104.538 104.538 0 0 0-59.609 12.683q-43.121 22.829-55.8 82.438a177.281 177.281 0 0 0-5.073 43.121v246.044q0 19.024 15.219 29.17 17.756 10.146 35.512 0 15.219-10.146 15.22-29.17v-96.389q27.9 12.683 54.536 12.683 36.78-3.8 62.145-20.292 46.925-31.707 57.072-100.193 1.268-13.951 1.268-30.439 0-90.047-58.34-129.364-26.634-19.024-58.341-19.024Zm-58.34 178.826V323.25q0-53.267 26.634-65.95a40.3 40.3 0 0 1 24.1-5.073h3.805l13.951 2.537q39.317 17.756 39.316 79.9 0 54.536-27.9 74.828-12.682 8.878-25.365 8.878-41.853-6.341-50.731-29.17-3.81-10.146-3.81-25.365ZM2561.1 185.008h-3.8a104.535 104.535 0 0 0-59.609 12.683q-43.121 22.829-55.805 82.438a177.317 177.317 0 0 0-5.072 43.121v246.045q0 19.024 15.218 29.17 17.756 10.146 35.512 0 15.22-10.146 15.219-29.17v-96.389q27.9 12.683 54.536 12.683 36.778-3.8 62.145-20.292 46.926-31.707 57.072-100.193 1.268-13.951 1.269-30.439 0-90.047-58.341-129.364-26.632-19.024-58.34-19.024Zm-58.34 178.826V323.25q0-53.267 26.634-65.95a40.3 40.3 0 0 1 24.1-5.073h3.806l13.951 2.537q39.316 17.756 39.316 79.9 0 54.536-27.9 74.828-12.683 8.878-25.365 8.878-41.854-6.341-50.731-29.17-3.811-10.146-3.812-25.365Z" fill="#3e94d1"/><path data-name="Caminho 45" d="M292.382 50.183 335.3 93.106 132.793 295.617a56.18 56.18 0 0 1-75.029 3.983 199.652 199.652 0 0 1-5.543-5.137l-2.028-2.028A171.3 171.3 0 0 1 292.45 50.183Z" transform="translate(-.004 .005)" fill="url(#a)"/><path data-name="Caminho 46" d="M378.154 50.189 132.788 295.622a56.18 56.18 0 0 1-75.029 3.988 49.512 49.512 0 0 1-4.461-3.988l242.256 242.257a56.177 56.177 0 0 0 79.49 0l245.364-245.366A171.3 171.3 0 0 0 378.154 50.256Zm160.874 160.874a56.208 56.208 0 1 1 0-79.49 56.177 56.177 0 0 1 0 79.49Z" fill="#3e94d1"/></svg>