<svg xmlns="http://www.w3.org/2000/svg" width="180" height="52.115" viewBox="0 0 180 52.115">
    <path id="Caminho_53" data-name="Caminho 53"
        d="M16.2-18.743H16.7a10.733,10.733,0,0,0,5.667-1.971q4.435-2.957,5.421-9.733a16.557,16.557,0,0,0,.246-2.957q0-7.762-4.682-11.7A10.523,10.523,0,0,0,16.2-47.942,21.755,21.755,0,0,0,11.03-46.71v-9.24a2.951,2.951,0,0,0-.986-2.341A3.034,3.034,0,0,0,7.7-59.4,2.79,2.79,0,0,0,4.87-57.429,2.822,2.822,0,0,0,4.5-55.95v23.778q0,8.747,6.037,12.2A10.18,10.18,0,0,0,16.2-18.743ZM11.03-32.172v-4.066q0-2.957,1.725-4.066l.739-.37a5.616,5.616,0,0,1,2.71-.739,6.7,6.7,0,0,1,2.464.862Q21.5-38.7,21.5-33.4t-2.834,7.269a5.2,5.2,0,0,1-2.464.986h-.37q-4.066,0-4.682-4.682A21.217,21.217,0,0,1,11.03-32.172ZM40.106-55.7a3.1,3.1,0,0,0-1.971-3.08A2.743,2.743,0,0,0,36.9-59.03a3.17,3.17,0,0,0-2.957,1.848A3.979,3.979,0,0,0,33.7-55.7v33.758a2.926,2.926,0,0,0,1.848,2.834,3.617,3.617,0,0,0,1.355.246,3.016,3.016,0,0,0,2.957-1.848,3.3,3.3,0,0,0,.246-1.232ZM49.1-48.065a3.622,3.622,0,0,1,2.464.986,3.343,3.343,0,0,1,.986,2.464V-30.57a5.793,5.793,0,0,0,.616,2.834,4.3,4.3,0,0,0,2.094,2.094,7.76,7.76,0,0,0,2.464.37q3.08,0,4.189-1.848l.37-.616A6.772,6.772,0,0,0,62.9-30.57V-44.616a3.2,3.2,0,0,1,1.725-2.957,2.846,2.846,0,0,1,3.2,0,3.2,3.2,0,0,1,1.725,2.957V-30.57q-.739,8.5-7.639,11.088a11.831,11.831,0,0,1-4.189.739,10.9,10.9,0,0,1-9.24-4.435,11.089,11.089,0,0,1-1.109-1.6A12.385,12.385,0,0,1,45.9-30.57V-44.616a3.11,3.11,0,0,1,1.848-3.08A2.585,2.585,0,0,1,49.1-48.065Zm29.322,0a3.622,3.622,0,0,1,2.464.986,3.343,3.343,0,0,1,.986,2.464V-30.57a5.793,5.793,0,0,0,.616,2.834,4.3,4.3,0,0,0,2.094,2.094,7.76,7.76,0,0,0,2.464.37q3.08,0,4.189-1.848l.37-.616a6.772,6.772,0,0,0,.616-2.834V-44.616a3.2,3.2,0,0,1,1.725-2.957,2.846,2.846,0,0,1,3.2,0,3.2,3.2,0,0,1,1.725,2.957V-30.57q-.739,8.5-7.639,11.088a11.831,11.831,0,0,1-4.189.739,10.9,10.9,0,0,1-9.24-4.435,11.088,11.088,0,0,1-1.109-1.6,12.385,12.385,0,0,1-1.478-5.791V-44.616a3.11,3.11,0,0,1,1.848-3.08A2.585,2.585,0,0,1,78.422-48.065Zm48.173,25.626V-35.006a12.81,12.81,0,0,0-4.066-9.117,12.1,12.1,0,0,0-2.094-1.478,9.974,9.974,0,0,0-4.682-1.232,10.678,10.678,0,0,0-8.994,4.682q-3.819,5.667-2.094,13.8a11.649,11.649,0,0,0,5.175,7.762,16.882,16.882,0,0,0,2.094,1.109,10.525,10.525,0,0,0,8.378-.493,3.073,3.073,0,0,0,2.957,2.094,2.82,2.82,0,0,0,2.464-.986A5.858,5.858,0,0,0,126.594-22.439ZM115.506-40.18a4.249,4.249,0,0,1,3.819,2.218q.862,1.6.739,7.269-.37,4.066-2.834,5.051a6.785,6.785,0,0,1-2.341.123,4.214,4.214,0,0,1-3.45-2.71,2.187,2.187,0,0,1-.246-.986,14.571,14.571,0,0,1,0-7.515,3.956,3.956,0,0,1,2.957-3.2A4.317,4.317,0,0,1,115.506-40.18Zm28.83-7.762h-.37a10.155,10.155,0,0,0-5.791,1.232q-4.189,2.218-5.421,8.008a17.219,17.219,0,0,0-.493,4.189v23.9a3.2,3.2,0,0,0,1.478,2.834,3.265,3.265,0,0,0,3.45,0,3.2,3.2,0,0,0,1.478-2.834v-9.363a12.75,12.75,0,0,0,5.3,1.232A13.461,13.461,0,0,0,150-20.714q4.558-3.08,5.544-9.733.123-1.355.123-2.957,0-8.747-5.667-12.567a9.541,9.541,0,0,0-5.667-1.848ZM138.668-30.57v-3.943q0-5.175,2.587-6.407a3.915,3.915,0,0,1,2.341-.493h.37l1.355.246q3.819,1.725,3.819,7.762,0,5.3-2.71,7.269a4.276,4.276,0,0,1-2.464.862q-4.066-.616-4.928-2.834A7.08,7.08,0,0,1,138.668-30.57Zm34.5-17.372h-.37a10.155,10.155,0,0,0-5.791,1.232q-4.189,2.218-5.421,8.008a17.222,17.222,0,0,0-.493,4.189v23.9a3.2,3.2,0,0,0,1.478,2.834,3.265,3.265,0,0,0,3.45,0,3.2,3.2,0,0,0,1.478-2.834v-9.363a12.75,12.75,0,0,0,5.3,1.232,13.46,13.46,0,0,0,6.037-1.971q4.559-3.08,5.544-9.733.123-1.355.123-2.957,0-8.747-5.667-12.567a9.541,9.541,0,0,0-5.667-1.848ZM167.5-30.57v-3.943q0-5.175,2.587-6.407a3.915,3.915,0,0,1,2.341-.493h.37l1.355.246q3.819,1.725,3.819,7.762,0,5.3-2.71,7.269a4.276,4.276,0,0,1-2.464.862q-4.066-.616-4.928-2.834A7.079,7.079,0,0,1,167.5-30.57Z"
        transform="translate(-4.5 59.4)" fill="#3e94d1" />
</svg>