<svg xmlns="http://www.w3.org/2000/svg" width="60.986" height="24"><path data-name="Caminho 49" d="M.001 21.682h.393a.883.883 0 0 0 .468-.086.628.628 0 0 0 .2-.357 6.276 6.276 0 0 0 .049-.715q.025-.616.049-1.552t.035-2.09l.025-2.366q.013-1.208.012-2.334v-2.005q0-1.183-.012-2.587t-.025-2.662q-.012-1.257-.049-2.168A6.649 6.649 0 0 0 1.06 1.7a.7.7 0 0 0-.2-.37.79.79 0 0 0-.468-.1H.001V.123h4.8v1.109h-.514a.735.735 0 0 0-.444.1.839.839 0 0 0-.222.37 4.8 4.8 0 0 0-.074.887q-.025.739-.049 1.8t-.025 2.3v2.4h4.9q0-1.158-.012-2.4t-.02-2.307q-.012-1.06-.049-1.8t-.062-.887a.839.839 0 0 0-.222-.37.735.735 0 0 0-.444-.1h-.517V.123h4.8v1.109h-.394a.79.79 0 0 0-.468.1.7.7 0 0 0-.2.37 6.648 6.648 0 0 0-.086 1.06q-.037.912-.062 2.168t-.025 2.661v4.587q0 1.138.012 2.341l.025 2.366q.013 1.159.037 2.094.025.936.049 1.552a6.275 6.275 0 0 0 .049.715.628.628 0 0 0 .2.357.883.883 0 0 0 .468.086h.394v1.133h-4.8v-1.14h.517a.819.819 0 0 0 .444-.086.741.741 0 0 0 .222-.357 6.276 6.276 0 0 0 .049-.715q.025-.616.037-1.552t.026-2.09l.025-2.366q.013-1.208.012-2.334v-2.005h-4.9v2q0 1.133.012 2.341t.021 2.364q.012 1.158.025 2.094t.037 1.552a6.275 6.275 0 0 0 .049.715.741.741 0 0 0 .222.357.819.819 0 0 0 .444.086h.513v1.133h-4.8Zm17.52-3.4h-4.732V17.15h.37a.594.594 0 0 0 .357-.1.939.939 0 0 0 .259-.419 2.186 2.186 0 0 0 .148-.48 7.756 7.756 0 0 0 .086-.862q.037-.6.049-1.762t.012-3.2a13.2 13.2 0 0 0-.074-1.6 1.264 1.264 0 0 0-.395-.845 1.391 1.391 0 0 0-.3-.222.733.733 0 0 0-.37-.1h-.148V6.456h3.671q-.025.2-.049.542t-.049 1.035q-.025.69-.037 1.8t-.012 2.784q0 1.306.012 2.045t.049 1.17a2.142 2.142 0 0 0 .123.628 1.989 1.989 0 0 0 .234.394.746.746 0 0 0 .591.3h.2ZM15.055 3.548a1.464 1.464 0 0 1-1.146-.48 1.828 1.828 0 0 1-.431-1.269 1.923 1.923 0 0 1 .431-1.294A1.431 1.431 0 0 1 15.055 0a1.468 1.468 0 0 1 1.158.505 1.889 1.889 0 0 1 .444 1.294 1.8 1.8 0 0 1-.444 1.269 1.5 1.5 0 0 1-1.158.48Zm7 2.637a3.173 3.173 0 0 1 1.232.246 1.975 1.975 0 0 1 .961.912V6.182h.986v3.474h-.986v-.222a2.9 2.9 0 0 0-.074-.678 2.157 2.157 0 0 0-.3-.653 2.038 2.038 0 0 0-.628-.641 1.729 1.729 0 0 0-.924-.222 1.349 1.349 0 0 0-1.035.37 1.459 1.459 0 0 0-.345 1.035 1.517 1.517 0 0 0 .222.838 2.44 2.44 0 0 0 .69.665 8.455 8.455 0 0 0 .788.444l1.035.517a3.7 3.7 0 0 1 1.429 1.109 3.1 3.1 0 0 1 .579 1.047 4.221 4.221 0 0 1 .16 1.22 4.468 4.468 0 0 1-.32 1.762 3.561 3.561 0 0 1-.875 1.257 3.724 3.724 0 0 1-1.294.764 4.74 4.74 0 0 1-1.577.259 3.953 3.953 0 0 1-1.281-.209 3.136 3.136 0 0 1-1.1-.641 3.657 3.657 0 0 1-.797-1.045 3.528 3.528 0 0 1-.37-1.429l.739-.2a2.649 2.649 0 0 0 .949 1.786 2.757 2.757 0 0 0 1.786.653 1.944 1.944 0 0 0 1.38-.505 1.906 1.906 0 0 0 .542-1.466 2.338 2.338 0 0 0-.136-.887 2.284 2.284 0 0 0-.505-.69 3.9 3.9 0 0 0-.678-.517q-.431-.271-.912-.542t-.936-.554a4.183 4.183 0 0 1-.752-.579 3.28 3.28 0 0 1-.752-1.109 3.318 3.318 0 0 1-.234-1.232 3 3 0 0 1 .936-2.316 3.39 3.39 0 0 1 2.395-.863ZM33.93 19.023a2.032 2.032 0 0 1-.209.752 2.249 2.249 0 0 1-.505.678 2.778 2.778 0 0 1-.764.493 2.464 2.464 0 0 1-1.01.2 4.113 4.113 0 0 1-1.441-.234 2.389 2.389 0 0 1-1.121-.973 3.324 3.324 0 0 1-.308-.641 4.925 4.925 0 0 1-.222-.949q-.086-.579-.136-1.429t-.049-2.082v-3.146q0-1.22-.012-2t-.037-1.244l-.049-.887H26.76V6.456h.172a1.7 1.7 0 0 0 1.084-.394 3.564 3.564 0 0 0 .85-1.01 5.418 5.418 0 0 0 .554-1.392 6.144 6.144 0 0 0 .2-1.515v-.494h.936v4.8h2.021V7.56h-2.023q-.074.616-.111 1.244t-.074 1.454q-.037.825-.049 1.922t-.012 2.649q0 1.084.012 1.749t.049 1.1q.037.431.086.727a4.76 4.76 0 0 0 .148.616 1.351 1.351 0 0 0 .48.8 1.314 1.314 0 0 0 .776.234 1.209 1.209 0 0 0 .912-.357 1.849 1.849 0 0 0 .468-.825Zm3.5-12.838a3.745 3.745 0 0 1 1.392.259 3.906 3.906 0 0 1 1.2.752 6.4 6.4 0 0 1 .678.739 3.706 3.706 0 0 1 .53.986 6.577 6.577 0 0 1 .333 1.454 17.261 17.261 0 0 1 .111 2.144 13.445 13.445 0 0 1-.1 1.749 7.073 7.073 0 0 1-.283 1.294 4.27 4.27 0 0 1-.456.973 5.55 5.55 0 0 1-.591.764 3.751 3.751 0 0 1-1.281.924 3.818 3.818 0 0 1-1.528.308 3.74 3.74 0 0 1-1.6-.345 3.98 3.98 0 0 1-1.306-.986 6.682 6.682 0 0 1-.542-.727 3.861 3.861 0 0 1-.419-.924 6.9 6.9 0 0 1-.259-1.281 15.868 15.868 0 0 1-.086-1.8 14.665 14.665 0 0 1 .111-1.947 8.145 8.145 0 0 1 .308-1.417 4.322 4.322 0 0 1 .48-1.035 4.248 4.248 0 0 1 .653-.776 4.17 4.17 0 0 1 1.22-.813 3.565 3.565 0 0 1 1.434-.298Zm0 1.109a1.5 1.5 0 0 0-1.183.542 1.006 1.006 0 0 0-.209.333 2.984 2.984 0 0 0-.148.69q-.062.48-.1 1.343t-.037 2.267q0 1.306.037 2.107t.1 1.269a2.949 2.949 0 0 0 .148.678 1.366 1.366 0 0 0 .209.357 1.538 1.538 0 0 0 .53.419 1.49 1.49 0 0 0 .653.148 1.382 1.382 0 0 0 1.158-.542 1.366 1.366 0 0 0 .209-.357 2.95 2.95 0 0 0 .148-.678q.062-.468.1-1.269t.037-2.131q0-1.4-.037-2.255t-.088-1.333a2.477 2.477 0 0 0-.148-.7 1.6 1.6 0 0 0-.2-.345 1.5 1.5 0 0 0-1.18-.543Zm7.934.394a4 4 0 0 1 1.137-1.047 3.094 3.094 0 0 1 1.7-.456 2.9 2.9 0 0 1 2.218.789 3.674 3.674 0 0 1 .739 2.563 1.9 1.9 0 0 1-.468 1.343 1.516 1.516 0 0 1-1.158.505 1.445 1.445 0 0 1-1.133-.468 1.778 1.778 0 0 1-.419-1.232 2.037 2.037 0 0 1 .333-1.146 1.07 1.07 0 0 1 .949-.505.568.568 0 0 0-.308-.567 1.49 1.49 0 0 0-.653-.148 1.839 1.839 0 0 0-1.6.813 4.9 4.9 0 0 0-.567 2.71v3.721q0 .887.012 1.343t.025.6a.677.677 0 0 0 .062.246.551.551 0 0 0 .246.3 1.277 1.277 0 0 0 .591.1h.591v1.13h-5.1V17.15h.37a.657.657 0 0 0 .665-.493 2.637 2.637 0 0 0 .086-.345 5.237 5.237 0 0 0 .049-.715q.012-.517.025-1.528t.012-2.834v-1.6q0-.616-.025-.961a3.627 3.627 0 0 0-.062-.505.479.479 0 0 0-.111-.234 2.237 2.237 0 0 0-.308-.259.8.8 0 0 0-.456-.111h-.246V6.456h.665a4.639 4.639 0 0 1 .825.062 1.6 1.6 0 0 1 .567.209 1.494 1.494 0 0 1 .407.382 3.99 3.99 0 0 1 .339.579Zm15.622-.123h-.148a.875.875 0 0 0-.862.739q-.074.246-.259.973t-.416 1.705l-.505 2.094q-.271 1.121-.53 2.168-.259 1.047-.493 1.947t-.36 1.391q-.3 1.306-.628 2.316a8.277 8.277 0 0 1-.752 1.7 3.116 3.116 0 0 1-.986 1.047 2.536 2.536 0 0 1-1.38.357 2.97 2.97 0 0 1-1.281-.246 2.1 2.1 0 0 1-.825-.678 2.835 2.835 0 0 1-.444-.986 4.914 4.914 0 0 1-.136-1.17 2.086 2.086 0 0 1 .431-1.38 1.417 1.417 0 0 1 1.146-.517 1.386 1.386 0 0 1 1.06.419 1.7 1.7 0 0 1 .394 1.207 1.537 1.537 0 0 1-.382 1.1 1.4 1.4 0 0 1-1.072.407.617.617 0 0 0 .333.579 1.3 1.3 0 0 0 .628.185 1.478 1.478 0 0 0 1.306-.715 3.912 3.912 0 0 0 .3-.493 4.569 4.569 0 0 0 .246-.628q.123-.382.271-1t.394-1.6q-.074-.271-.308-1.06t-.545-1.844q-.308-1.047-.665-2.23t-.665-2.218q-.308-1.035-.554-1.811T52.954 8.3a1.756 1.756 0 0 0-.3-.579.646.646 0 0 0-.493-.16h-.3V6.456h4.78v1.109h-.44q-.665 0-.665.542a6.177 6.177 0 0 0 .111.912q.111.641.32 1.565t.53 2.082q.32 1.158.739 2.489.32-1.207.591-2.341t.48-2.045q.209-.912.32-1.565t.136-.949a.79.79 0 0 0-.1-.517q-.123-.172-.567-.172h-.37v-1.11h3.253Z" fill="#1d9bf0"/></svg>