<svg xmlns="http://www.w3.org/2000/svg" width="262.98" height="76.14"><path data-name="Caminho 53" d="M17.1 59.4h.72a15.681 15.681 0 0 0 8.28-2.88q6.48-4.32 7.92-14.22a24.19 24.19 0 0 0 .36-4.32q0-11.34-6.84-17.1a15.375 15.375 0 0 0-10.44-4.14 31.784 31.784 0 0 0-7.56 1.8V5.04A4.312 4.312 0 0 0 8.1 1.62 4.433 4.433 0 0 0 4.68 0 4.076 4.076 0 0 0 .54 2.88 4.122 4.122 0 0 0 0 5.04v34.74Q0 52.56 8.82 57.6a14.872 14.872 0 0 0 8.28 1.8ZM9.54 39.78v-5.94q0-4.32 2.52-5.94l1.08-.54a8.206 8.206 0 0 1 3.96-1.08 9.783 9.783 0 0 1 3.6 1.26q4.14 2.7 4.14 10.44T20.7 48.6a7.6 7.6 0 0 1-3.6 1.44h-.54q-5.94 0-6.84-6.84a31 31 0 0 1-.18-3.42ZM52.02 5.4A4.522 4.522 0 0 0 49.14.9a4.007 4.007 0 0 0-1.8-.36 4.631 4.631 0 0 0-4.32 2.7 5.813 5.813 0 0 0-.36 2.16v49.32a4.275 4.275 0 0 0 2.7 4.14 5.285 5.285 0 0 0 1.98.36 4.406 4.406 0 0 0 4.32-2.7 4.815 4.815 0 0 0 .36-1.8Zm13.14 11.16a5.292 5.292 0 0 1 3.6 1.44 4.884 4.884 0 0 1 1.44 3.6v20.52a8.463 8.463 0 0 0 .9 4.14 6.277 6.277 0 0 0 3.06 3.06 11.337 11.337 0 0 0 3.6.54q4.5 0 6.12-2.7l.54-.9a9.894 9.894 0 0 0 .9-4.14V21.6a4.672 4.672 0 0 1 2.52-4.32 4.158 4.158 0 0 1 4.68 0 4.672 4.672 0 0 1 2.52 4.32v20.52q-1.08 12.42-11.16 16.2a17.285 17.285 0 0 1-6.12 1.08q-8.64 0-13.5-6.48a16.2 16.2 0 0 1-1.62-2.34 18.094 18.094 0 0 1-2.16-8.46V21.6a4.544 4.544 0 0 1 2.7-4.5 3.776 3.776 0 0 1 1.98-.54Zm42.84 0a5.292 5.292 0 0 1 3.6 1.44 4.884 4.884 0 0 1 1.44 3.6v20.52a8.463 8.463 0 0 0 .9 4.14 6.277 6.277 0 0 0 3.06 3.06 11.337 11.337 0 0 0 3.6.54q4.5 0 6.12-2.7l.54-.9a9.894 9.894 0 0 0 .9-4.14V21.6a4.672 4.672 0 0 1 2.52-4.32 4.158 4.158 0 0 1 4.68 0 4.672 4.672 0 0 1 2.52 4.32v20.52q-1.08 12.42-11.16 16.2a17.285 17.285 0 0 1-6.12 1.08q-8.64 0-13.5-6.48a16.2 16.2 0 0 1-1.62-2.34 18.094 18.094 0 0 1-2.16-8.46V21.6a4.544 4.544 0 0 1 2.7-4.5 3.776 3.776 0 0 1 1.98-.54ZM178.38 54V35.64q-.54-8.46-5.94-13.32a17.677 17.677 0 0 0-3.06-2.16 14.572 14.572 0 0 0-6.84-1.8 15.6 15.6 0 0 0-13.14 6.84q-5.58 8.28-3.06 20.16a17.019 17.019 0 0 0 7.56 11.34 24.664 24.664 0 0 0 3.06 1.62 15.377 15.377 0 0 0 12.24-.72 4.49 4.49 0 0 0 4.32 3.06 4.12 4.12 0 0 0 3.6-1.44q1.26-1.62 1.26-5.22Zm-16.2-25.92a6.208 6.208 0 0 1 5.58 3.24q1.26 2.34 1.08 10.62-.54 5.94-4.14 7.38a9.912 9.912 0 0 1-3.42.18 6.157 6.157 0 0 1-5.04-3.96 3.2 3.2 0 0 1-.36-1.44 21.289 21.289 0 0 1 0-10.98 5.78 5.78 0 0 1 4.32-4.68 6.307 6.307 0 0 1 1.98-.36Zm42.12-11.34h-.54a14.836 14.836 0 0 0-8.46 1.8q-6.12 3.24-7.92 11.7a25.159 25.159 0 0 0-.72 6.12v34.92a4.676 4.676 0 0 0 2.16 4.14 4.77 4.77 0 0 0 5.04 0 4.676 4.676 0 0 0 2.16-4.14V57.6a18.628 18.628 0 0 0 7.74 1.8 19.666 19.666 0 0 0 8.82-2.88q6.66-4.5 8.1-14.22.18-1.98.18-4.32 0-12.78-8.28-18.36a13.94 13.94 0 0 0-8.28-2.7Zm-8.28 25.38v-5.76q0-7.56 3.78-9.36a5.72 5.72 0 0 1 3.42-.72h.54l1.98.36q5.58 2.52 5.58 11.34 0 7.74-3.96 10.62a6.248 6.248 0 0 1-3.6 1.26q-5.94-.9-7.2-4.14a10.343 10.343 0 0 1-.54-3.6Zm50.4-25.38h-.54a14.836 14.836 0 0 0-8.46 1.8q-6.12 3.24-7.92 11.7a25.159 25.159 0 0 0-.72 6.12v34.92a4.676 4.676 0 0 0 2.16 4.14 4.77 4.77 0 0 0 5.04 0 4.676 4.676 0 0 0 2.16-4.14V57.6a18.628 18.628 0 0 0 7.74 1.8 19.666 19.666 0 0 0 8.82-2.88q6.66-4.5 8.1-14.22.18-1.98.18-4.32 0-12.78-8.28-18.36a13.94 13.94 0 0 0-8.28-2.7Zm-8.28 25.38v-5.76q0-7.56 3.78-9.36a5.72 5.72 0 0 1 3.42-.72h.54l1.98.36q5.58 2.52 5.58 11.34 0 7.74-3.96 10.62a6.248 6.248 0 0 1-3.6 1.26q-5.94-.9-7.2-4.14a10.343 10.343 0 0 1-.54-3.6Z" fill="#3e94d1"/></svg>