<svg xmlns="http://www.w3.org/2000/svg" width="100" height="80.895">
    <defs>
        <linearGradient id="a" x1=".156" y1=".154" x2=".641" y2=".692" gradientUnits="objectBoundingBox">
            <stop offset=".12" stop-color="#2988c9" />
            <stop offset=".29" stop-color="#2586c8" />
            <stop offset=".46" stop-color="#1983c5" />
            <stop offset=".63" stop-color="#057ec2" />
            <stop offset=".67" stop-color="#007dc1" />
        </linearGradient>
    </defs>
    <path data-name="Caminho 53"
        d="M6.5 74.53h.274a5.963 5.963 0 0 0 3.149-1.1 7.379 7.379 0 0 0 3.012-5.407 9.2 9.2 0 0 0 .137-1.643q0-4.312-2.6-6.5A5.846 5.846 0 0 0 6.5 58.309a12.086 12.086 0 0 0-2.875.684V53.86a1.64 1.64 0 0 0-.548-1.3 1.686 1.686 0 0 0-1.3-.616 1.55 1.55 0 0 0-1.574 1.1 1.568 1.568 0 0 0-.205.821v13.21q0 4.86 3.354 6.776a5.655 5.655 0 0 0 3.148.679Zm-2.872-7.46v-2.259a2.479 2.479 0 0 1 .958-2.259L5 62.343a3.12 3.12 0 0 1 1.5-.407 3.72 3.72 0 0 1 1.369.479q1.574 1.027 1.574 3.97t-1.572 4.038a2.891 2.891 0 0 1-1.371.548h-.2q-2.259 0-2.6-2.6a11.787 11.787 0 0 1-.072-1.301Zm16.153-13.074a1.72 1.72 0 0 0-1.1-1.711 1.524 1.524 0 0 0-.684-.137 1.761 1.761 0 0 0-1.643 1.027 2.21 2.21 0 0 0-.137.821V72.75a1.626 1.626 0 0 0 1.027 1.574 2.01 2.01 0 0 0 .753.137 1.675 1.675 0 0 0 1.643-1.027 1.831 1.831 0 0 0 .137-.684Zm5 4.244a2.012 2.012 0 0 1 1.369.548 1.857 1.857 0 0 1 .548 1.369v7.8a3.218 3.218 0 0 0 .342 1.574 2.387 2.387 0 0 0 1.16 1.166 4.311 4.311 0 0 0 1.369.205 2.488 2.488 0 0 0 2.331-1.026l.205-.342a3.762 3.762 0 0 0 .342-1.574v-7.8a1.777 1.777 0 0 1 .958-1.643 1.581 1.581 0 0 1 1.78 0 1.777 1.777 0 0 1 .958 1.643v7.8q-.411 4.723-4.244 6.16a6.573 6.573 0 0 1-2.327.411 6.055 6.055 0 0 1-5.133-2.464 6.16 6.16 0 0 1-.616-.89 6.88 6.88 0 0 1-.821-3.217v-7.8a1.728 1.728 0 0 1 1.023-1.717 1.436 1.436 0 0 1 .753-.2Zm16.29 0a2.012 2.012 0 0 1 1.369.548 1.857 1.857 0 0 1 .548 1.369v7.8a3.218 3.218 0 0 0 .342 1.574 2.387 2.387 0 0 0 1.164 1.164 4.311 4.311 0 0 0 1.369.205 2.488 2.488 0 0 0 2.327-1.027l.205-.342a3.762 3.762 0 0 0 .342-1.574v-7.8a1.777 1.777 0 0 1 .958-1.643 1.581 1.581 0 0 1 1.78 0 1.777 1.777 0 0 1 .958 1.643v7.8q-.411 4.723-4.244 6.16a6.573 6.573 0 0 1-2.327.411 6.055 6.055 0 0 1-5.133-2.464 6.16 6.16 0 0 1-.616-.89 6.88 6.88 0 0 1-.821-3.217v-7.8a1.728 1.728 0 0 1 1.023-1.714 1.436 1.436 0 0 1 .753-.2ZM67.83 72.477v-6.982a7.117 7.117 0 0 0-2.259-5.065 6.722 6.722 0 0 0-1.164-.821 5.541 5.541 0 0 0-2.6-.684 5.932 5.932 0 0 0-5 2.6 9.626 9.626 0 0 0-1.164 7.666 6.472 6.472 0 0 0 2.875 4.312 9.378 9.378 0 0 0 1.164.616 5.847 5.847 0 0 0 4.654-.274 1.707 1.707 0 0 0 1.643 1.164 1.567 1.567 0 0 0 1.369-.548 3.255 3.255 0 0 0 .482-1.984Zm-6.16-9.856a2.361 2.361 0 0 1 2.122 1.232 9.989 9.989 0 0 1 .411 4.038q-.205 2.259-1.574 2.806a3.769 3.769 0 0 1-1.3.068 2.341 2.341 0 0 1-1.916-1.506 1.215 1.215 0 0 1-.137-.548 8.1 8.1 0 0 1 0-4.175 2.2 2.2 0 0 1 1.643-1.78 2.4 2.4 0 0 1 .751-.135Zm16.016-4.312h-.205a5.642 5.642 0 0 0-3.217.684 6.121 6.121 0 0 0-3.011 4.45 9.567 9.567 0 0 0-.274 2.327v13.273a1.778 1.778 0 0 0 .821 1.574 1.814 1.814 0 0 0 1.917 0 1.778 1.778 0 0 0 .821-1.574v-5.2a7.083 7.083 0 0 0 2.943.684 7.478 7.478 0 0 0 3.354-1.1 7.468 7.468 0 0 0 3.08-5.407q.068-.753.068-1.643 0-4.86-3.149-6.982a5.3 5.3 0 0 0-3.149-1.027Zm-3.149 9.651v-2.19q0-2.875 1.437-3.559a2.175 2.175 0 0 1 1.3-.274h.205l.753.137q2.122.958 2.122 4.312 0 2.943-1.506 4.038a2.376 2.376 0 0 1-1.369.479q-2.259-.342-2.738-1.574a3.933 3.933 0 0 1-.203-1.37ZM93.7 58.309h-.2a5.642 5.642 0 0 0-3.217.684 6.121 6.121 0 0 0-3.014 4.45 9.567 9.567 0 0 0-.274 2.327v13.273a1.778 1.778 0 0 0 .821 1.574 1.814 1.814 0 0 0 1.917 0 1.778 1.778 0 0 0 .821-1.574v-5.2a7.083 7.083 0 0 0 2.946.687 7.478 7.478 0 0 0 3.354-1.1 7.468 7.468 0 0 0 3.08-5.407q.068-.753.068-1.643 0-4.86-3.149-6.982a5.3 5.3 0 0 0-3.153-1.021Zm-3.149 9.651v-2.19q0-2.875 1.437-3.559a2.175 2.175 0 0 1 1.3-.274h.212l.753.137q2.122.958 2.122 4.312 0 2.943-1.506 4.038a2.376 2.376 0 0 1-1.369.479q-2.259-.342-2.738-1.574a3.933 3.933 0 0 1-.208-1.37Z"
        fill="#3e94d1" />
    <path data-name="Caminho 45"
        d="m24.873 4.264 3.651 3.651L11.3 25.139a4.778 4.778 0 0 1-6.382.339 16.23 16.23 0 0 1-.471-.437l-.172-.172A14.57 14.57 0 0 1 24.879 4.264Z"
        transform="translate(21.479 .005)" fill="url(#a)" />
    <path data-name="Caminho 46"
        d="m53.649 4.269-20.87 20.876a4.778 4.778 0 0 1-6.382.339 4.211 4.211 0 0 1-.379-.339l20.61 20.605a4.778 4.778 0 0 0 6.761 0l20.87-20.87a14.572 14.572 0 0 0-20.61-20.605Zm13.679 13.683a4.781 4.781 0 1 1 0-6.761 4.778 4.778 0 0 1 0 6.761Z"
        fill="#3e94d1" />
</svg>