<svg xmlns="http://www.w3.org/2000/svg" xmlns:xlink="http://www.w3.org/1999/xlink" width="222.75" height="227.66" viewBox="0 0 222.75 227.66">
  <defs>
    <linearGradient id="linear-gradient" x1="0.156" y1="0.154" x2="0.641" y2="0.692" gradientUnits="objectBoundingBox">
      <stop offset="0.12" stop-color="#2988c9"/>
      <stop offset="0.29" stop-color="#2586c8"/>
      <stop offset="0.46" stop-color="#1983c5"/>
      <stop offset="0.63" stop-color="#057ec2"/>
      <stop offset="0.67" stop-color="#007dc1"/>
    </linearGradient>
  </defs>
  <g id="logo-2" transform="translate(-2365.125 878.83)">
    <path id="visual_identity" d="M1.71,12.42H3.15a3.224,3.224,0,0,0,1.71-.315A2.3,2.3,0,0,0,5.58,10.8a22.921,22.921,0,0,0,.18-2.61q.09-2.25.18-5.67t.135-7.65q.045-4.23.09-8.64t.045-8.505V-29.61q0-4.32-.045-9.45t-.09-9.72Q6.03-53.37,5.9-56.7a24.284,24.284,0,0,0-.315-3.87,2.569,2.569,0,0,0-.72-1.35,2.887,2.887,0,0,0-1.71-.36H1.71v-4.05H19.26v4.05H17.37a2.685,2.685,0,0,0-1.62.36,3.065,3.065,0,0,0-.81,1.35,17.547,17.547,0,0,0-.27,3.24q-.09,2.7-.18,6.57t-.09,8.415v8.775H32.31q0-4.23-.045-8.775t-.09-8.415q-.045-3.87-.18-6.57t-.225-3.24a3.065,3.065,0,0,0-.81-1.35,2.685,2.685,0,0,0-1.62-.36H27.45v-4.05H45v4.05H43.56a2.887,2.887,0,0,0-1.71.36,2.569,2.569,0,0,0-.72,1.35,24.284,24.284,0,0,0-.315,3.87q-.135,3.33-.225,7.92t-.09,9.72v16.74q0,4.14.045,8.55t.09,8.64q.045,4.23.135,7.65t.18,5.67a22.92,22.92,0,0,0,.18,2.61,2.3,2.3,0,0,0,.72,1.305,3.224,3.224,0,0,0,1.71.315H45v4.14H27.45V12.42h1.89a2.992,2.992,0,0,0,1.62-.315,2.705,2.705,0,0,0,.81-1.305,22.923,22.923,0,0,0,.18-2.61q.09-2.25.135-5.67t.09-7.65q.045-4.23.09-8.64t.045-8.505V-29.61H14.4v7.29q0,4.14.045,8.55t.09,8.64q.045,4.23.09,7.65t.135,5.67a22.921,22.921,0,0,0,.18,2.61,2.7,2.7,0,0,0,.81,1.305,2.992,2.992,0,0,0,1.62.315h1.89v4.14H1.71ZM65.7,0H48.42V-4.14h1.35a2.169,2.169,0,0,0,1.305-.36,3.428,3.428,0,0,0,.945-1.53,7.985,7.985,0,0,0,.54-1.755,28.326,28.326,0,0,0,.315-3.15q.135-2.205.18-6.435t.045-11.7a48.211,48.211,0,0,0-.27-5.85,4.615,4.615,0,0,0-1.44-3.06,5.079,5.079,0,0,0-1.08-.81,2.677,2.677,0,0,0-1.35-.36h-.54V-43.2H61.83q-.09.72-.18,1.98t-.18,3.78q-.09,2.52-.135,6.57T61.29-20.7q0,4.77.045,7.47t.18,4.275a7.824,7.824,0,0,0,.45,2.3,7.264,7.264,0,0,0,.855,1.44,2.726,2.726,0,0,0,2.16,1.08h.72Zm-9-53.82a5.349,5.349,0,0,1-4.185-1.755A6.678,6.678,0,0,1,50.94-60.21a7.022,7.022,0,0,1,1.575-4.725A5.228,5.228,0,0,1,56.7-66.78a5.362,5.362,0,0,1,4.23,1.845,6.9,6.9,0,0,1,1.62,4.725,6.563,6.563,0,0,1-1.62,4.635A5.489,5.489,0,0,1,56.7-53.82Zm25.56,9.63a11.588,11.588,0,0,1,4.5.9,7.213,7.213,0,0,1,3.51,3.33v-4.23h3.6V-31.5h-3.6v-.81A10.605,10.605,0,0,0,90-34.785a7.878,7.878,0,0,0-1.08-2.385,7.444,7.444,0,0,0-2.3-2.34,6.317,6.317,0,0,0-3.375-.81,4.928,4.928,0,0,0-3.78,1.35,5.328,5.328,0,0,0-1.26,3.78,5.541,5.541,0,0,0,.81,3.06,8.912,8.912,0,0,0,2.52,2.43,30.884,30.884,0,0,0,2.88,1.62l3.78,1.89a13.524,13.524,0,0,1,5.22,4.05,11.335,11.335,0,0,1,2.115,3.825,15.418,15.418,0,0,1,.585,4.455,16.319,16.319,0,0,1-1.17,6.435,13.007,13.007,0,0,1-3.195,4.59A13.6,13.6,0,0,1,87.03-.045,17.312,17.312,0,0,1,81.27.9,14.439,14.439,0,0,1,76.59.135a11.453,11.453,0,0,1-4-2.34A13.358,13.358,0,0,1,69.66-6.03a12.885,12.885,0,0,1-1.35-5.22l2.7-.72a9.675,9.675,0,0,0,3.465,6.525A10.07,10.07,0,0,0,81-3.06a7.1,7.1,0,0,0,5.04-1.845,6.963,6.963,0,0,0,1.98-5.355,8.539,8.539,0,0,0-.495-3.24,8.342,8.342,0,0,0-1.845-2.52,14.254,14.254,0,0,0-2.475-1.89q-1.575-.99-3.33-1.98t-3.42-2.025A15.278,15.278,0,0,1,73.71-24.03a11.982,11.982,0,0,1-2.745-4.05,12.118,12.118,0,0,1-.855-4.5,10.943,10.943,0,0,1,3.42-8.46A12.383,12.383,0,0,1,82.26-44.19ZM125.64,2.7a7.423,7.423,0,0,1-.765,2.745A8.216,8.216,0,0,1,123.03,7.92a10.148,10.148,0,0,1-2.79,1.8,9,9,0,0,1-3.69.72,15.024,15.024,0,0,1-5.265-.855,8.726,8.726,0,0,1-4.1-3.555,12.143,12.143,0,0,1-1.125-2.34,17.987,17.987,0,0,1-.81-3.465q-.315-2.115-.5-5.22t-.18-7.605V-24.075q0-4.455-.045-7.29T104.4-35.91q-.09-1.71-.18-3.24H99.45V-43.2h.63a6.2,6.2,0,0,0,3.96-1.44,13.017,13.017,0,0,0,3.105-3.69,19.789,19.789,0,0,0,2.025-5.085,22.441,22.441,0,0,0,.72-5.535v-1.8h3.42V-43.2h7.38v4.05h-7.38q-.27,2.25-.4,4.545t-.27,5.31q-.135,3.015-.18,7.02T112.41-12.6q0,3.96.045,6.39t.18,4.005Q112.77-.63,112.95.45a17.387,17.387,0,0,0,.54,2.25,4.936,4.936,0,0,0,1.755,2.925,4.8,4.8,0,0,0,2.835.855,4.417,4.417,0,0,0,3.33-1.305,6.755,6.755,0,0,0,1.71-3.015Zm12.78-46.89a13.677,13.677,0,0,1,5.085.945A14.268,14.268,0,0,1,147.87-40.5a23.368,23.368,0,0,1,2.475,2.7,13.538,13.538,0,0,1,1.935,3.6,24.023,24.023,0,0,1,1.215,5.31,63.045,63.045,0,0,1,.4,7.83,49.11,49.11,0,0,1-.36,6.39,25.834,25.834,0,0,1-1.035,4.725A15.6,15.6,0,0,1,150.84-6.39a20.269,20.269,0,0,1-2.16,2.79A13.7,13.7,0,0,1,144-.225,13.945,13.945,0,0,1,138.42.9a13.661,13.661,0,0,1-5.85-1.26,14.535,14.535,0,0,1-4.77-3.6,24.4,24.4,0,0,1-1.98-2.655,14.1,14.1,0,0,1-1.53-3.375,25.2,25.2,0,0,1-.945-4.68,57.958,57.958,0,0,1-.315-6.57,53.564,53.564,0,0,1,.4-7.11,29.752,29.752,0,0,1,1.125-5.175,15.786,15.786,0,0,1,1.755-3.78A15.517,15.517,0,0,1,128.7-40.14a15.23,15.23,0,0,1,4.455-2.97A13.021,13.021,0,0,1,138.42-44.19Zm0,4.05a5.463,5.463,0,0,0-4.32,1.98,3.673,3.673,0,0,0-.765,1.215,10.9,10.9,0,0,0-.54,2.52q-.225,1.755-.36,4.905t-.135,8.28q0,4.77.135,7.7t.36,4.635a10.774,10.774,0,0,0,.54,2.475A4.989,4.989,0,0,0,134.1-5.13a5.617,5.617,0,0,0,1.935,1.53,5.442,5.442,0,0,0,2.385.54,5.048,5.048,0,0,0,4.23-1.98,4.989,4.989,0,0,0,.765-1.305,10.775,10.775,0,0,0,.54-2.475q.225-1.71.36-4.635t.135-7.785q0-5.13-.135-8.235T144-34.335a9.049,9.049,0,0,0-.54-2.565,5.85,5.85,0,0,0-.72-1.26A5.463,5.463,0,0,0,138.42-40.14ZM167.4-38.7a14.6,14.6,0,0,1,4.14-3.825,11.3,11.3,0,0,1,6.21-1.665q5.4,0,8.1,2.88t2.7,9.36a6.929,6.929,0,0,1-1.71,4.905,5.537,5.537,0,0,1-4.23,1.845,5.276,5.276,0,0,1-4.14-1.71,6.5,6.5,0,0,1-1.53-4.5,7.438,7.438,0,0,1,1.215-4.185,3.907,3.907,0,0,1,3.465-1.845,2.074,2.074,0,0,0-1.125-2.07,5.443,5.443,0,0,0-2.385-.54,6.715,6.715,0,0,0-5.85,2.97q-2.07,2.97-2.07,9.9v13.59q0,3.24.045,4.905t.09,2.2a2.472,2.472,0,0,0,.225.9,2.012,2.012,0,0,0,.9,1.08,4.663,4.663,0,0,0,2.16.36h2.16V0H157.14V-4.14h1.35a2.4,2.4,0,0,0,2.43-1.8,9.635,9.635,0,0,0,.315-1.26,19.132,19.132,0,0,0,.18-2.61q.045-1.89.09-5.58t.045-10.35v-5.85q0-2.25-.09-3.51a13.248,13.248,0,0,0-.225-1.845,1.75,1.75,0,0,0-.405-.855,8.171,8.171,0,0,0-1.125-.945,2.9,2.9,0,0,0-1.665-.4h-.9V-43.2h2.43a16.944,16.944,0,0,1,3.015.225,5.831,5.831,0,0,1,2.07.765,5.457,5.457,0,0,1,1.485,1.4A14.573,14.573,0,0,1,167.4-38.7Zm57.06-.45h-.54q-2.34,0-3.15,2.7-.27.9-.945,3.555t-1.53,6.21q-.855,3.555-1.845,7.65t-1.935,7.92q-.945,3.825-1.8,7.11t-1.3,5.085q-1.08,4.77-2.295,8.46a30.234,30.234,0,0,1-2.745,6.21,11.38,11.38,0,0,1-3.6,3.825,9.264,9.264,0,0,1-5.04,1.305,10.849,10.849,0,0,1-4.68-.9,7.677,7.677,0,0,1-3.015-2.475,10.355,10.355,0,0,1-1.62-3.6,17.949,17.949,0,0,1-.495-4.275A7.62,7.62,0,0,1,189.5,4.59,5.174,5.174,0,0,1,193.68,2.7a5.061,5.061,0,0,1,3.87,1.53,6.2,6.2,0,0,1,1.44,4.41,5.613,5.613,0,0,1-1.4,4.005,5.11,5.11,0,0,1-3.915,1.485,2.253,2.253,0,0,0,1.215,2.115,4.751,4.751,0,0,0,2.295.675,5.4,5.4,0,0,0,4.77-2.61,14.287,14.287,0,0,0,1.08-1.8,16.69,16.69,0,0,0,.9-2.3q.45-1.395.99-3.645T206.37.72q-.27-.99-1.125-3.87t-1.98-6.705Q202.14-13.68,200.835-18t-2.43-8.1q-1.125-3.78-2.025-6.615t-1.26-3.735a6.413,6.413,0,0,0-1.08-2.115,2.36,2.36,0,0,0-1.8-.585h-1.08V-43.2h17.46v4.05H207q-2.43,0-2.43,1.98a22.56,22.56,0,0,0,.4,3.33q.405,2.34,1.17,5.715t1.935,7.6q1.17,4.23,2.7,9.09,1.17-4.41,2.16-8.55t1.755-7.47q.765-3.33,1.17-5.715t.495-3.465a2.887,2.887,0,0,0-.36-1.89q-.45-.63-2.07-.63h-1.35V-43.2h11.88Z" transform="translate(2363.415 -672.05)" fill="#3e94d1"/>
    <g id="icon" transform="translate(2401.495 -878.825)">
      <path id="Caminho_45" data-name="Caminho 45" d="M65.4,11.221l9.6,9.6-45.3,45.3a12.566,12.566,0,0,1-16.783.892c-.423-.378-.832-.756-1.24-1.149l-.454-.454A38.317,38.317,0,0,1,65.419,11.221Z" transform="translate(0 0)" fill="url(#linear-gradient)"/>
      <path id="Caminho_46" data-name="Caminho 46" d="M80.554,11.216,25.67,66.115a12.566,12.566,0,0,1-16.783.892,11.074,11.074,0,0,1-1-.892L62.078,120.3a12.566,12.566,0,0,0,17.78,0l54.884-54.884A38.317,38.317,0,0,0,80.554,11.231ZM116.538,47.2a12.573,12.573,0,1,1,0-17.78A12.566,12.566,0,0,1,116.538,47.2Z" transform="translate(4.037 0.005)" fill="#3e94d1"/>
    </g>
  </g>
</svg>
