<svg xmlns="http://www.w3.org/2000/svg" width="24.194" height="20"><defs><linearGradient id="a" x1=".156" y1=".154" x2=".641" y2=".692" gradientUnits="objectBoundingBox"><stop offset=".12" stop-color="#2988c9"/><stop offset=".29" stop-color="#2586c8"/><stop offset=".46" stop-color="#1983c5"/><stop offset=".63" stop-color="#057ec2"/><stop offset=".67" stop-color="#007dc1"/></linearGradient></defs><path data-name="Caminho 43" d="M10.553 1.806 12.1 3.354 4.8 10.66a2.027 2.027 0 0 1-2.707.144 8.755 8.755 0 0 1-.2-.185l-.073-.073a6.18 6.18 0 0 1 8.74-8.74Z" transform="translate(-.005 .005)" fill="url(#a)"/><path data-name="Caminho 44" d="m13.643 1.81-8.852 8.855a2.027 2.027 0 0 1-2.707.144 1.787 1.787 0 0 1-.161-.144l8.74 8.74a2.027 2.027 0 0 0 2.868 0l8.852-8.852a6.18 6.18 0 0 0-8.74-8.74Zm5.8 5.8a2.028 2.028 0 1 1 0-2.868 2.027 2.027 0 0 1 .004 2.872Z" fill="#3e94d1"/></svg>