<svg xmlns="http://www.w3.org/2000/svg" width="22.667" height="20" viewBox="0 0 22.667 20">
    <g id="notificação" transform="translate(-301 -16)">
        <path id="Caminho_37" data-name="Caminho 37"
            d="M0-15.167A2.667,2.667,0,0,0,2.667-12.5h16a2.667,2.667,0,0,0,2.667-2.667V-26.5a2.667,2.667,0,0,0-2.667-2.667h-6c-2.375,0-2-3.333-5.625-3.333H2.667A2.667,2.667,0,0,0,0-29.833Z"
            transform="translate(301 48.5)" fill="#2586c8" />
        <path id="Caminho_38" data-name="Caminho 38"
            d="M-17.5,0h-4.375C-25.5,0-25.125,3.333-27.5,3.333h-6A2.667,2.667,0,0,0-36.167,6v6.667a.667.667,0,0,1-.667.667.667.667,0,0,1-.667-.667,2.667,2.667,0,0,0,2.667,2.667H-17.5a2.667,2.667,0,0,0,2.667-2.667v-10A2.667,2.667,0,0,0-17.5,0"
            transform="translate(338.5 20.667)" fill="#3e94d1" />
    </g>
</svg>