<svg xmlns="http://www.w3.org/2000/svg" width="22.667" height="20">
    <path data-name="Caminho 37"
        d="M0 17.333A2.667 2.667 0 0 0 2.667 20h16a2.667 2.667 0 0 0 2.667-2.667V6a2.667 2.667 0 0 0-2.667-2.667h-6c-2.375 0-2-3.333-5.625-3.333H2.667A2.667 2.667 0 0 0 0 2.667Z"
        fill="#8f939d" />
    <path data-name="Caminho 38"
        d="M20 4.667h-4.375C12 4.667 12.375 8 10 8H4a2.667 2.667 0 0 0-2.667 2.667v6.667a.667.667 0 0 1-.667.667.667.667 0 0 1-.667-.667 2.667 2.667 0 0 0 2.667 2.667H20a2.667 2.667 0 0 0 2.667-2.667v-10A2.667 2.667 0 0 0 20 4.667"
        fill="#e4e6eb" />
</svg>