<svg xmlns="http://www.w3.org/2000/svg" width="20.411" height="20"><g fill="#8f939d"><path data-name="Caminho 27" d="M18.246 20H2.165A2.165 2.165 0 0 1 0 17.835V6.094a2.173 2.173 0 0 1 1.212-1.94L9.253.218a2.184 2.184 0 0 1 1.9 0l8.041 3.936a2.173 2.173 0 0 1 1.212 1.94v11.741A2.165 2.165 0 0 1 18.246 20Zm-8.04-18.837a.968.968 0 0 0-.433.1L1.73 5.197a.992.992 0 0 0-.551.882v11.756a.984.984 0 0 0 .984.984h16.083a.984.984 0 0 0 .984-.984V6.094a.992.992 0 0 0-.551-.882l-8.04-3.951a.968.968 0 0 0-.433-.1Z"/><path data-name="Caminho 28" d="M10.206 10.345a.59.59 0 0 1-.2-.039L4.732 8.338a.59.59 0 1 1 .413-1.1l5.061 1.884 5.065-1.889a.59.59 0 1 1 .413 1.106l-5.278 1.971a.59.59 0 0 1-.2.035Zm6.1 7.041h-1.8a1.378 1.378 0 0 1-1.378-1.378v-1.8a1.378 1.378 0 0 1 1.378-1.379h1.8a1.378 1.378 0 0 1 1.378 1.378v1.8a1.378 1.378 0 0 1-1.378 1.379Zm-1.8-3.377a.2.2 0 0 0-.2.2v1.8a.2.2 0 0 0 .2.2h1.8a.2.2 0 0 0 .2-.2v-1.8a.2.2 0 0 0-.2-.2Z"/></g></svg>